<svg xmlns="http://www.w3.org/2000/svg" xmlns:xlink="http://www.w3.org/1999/xlink" width="560" height="404.072" viewBox="0 0 560 404.072"><defs><linearGradient id="a" y1="0.5" x2="0.999" y2="0.5" gradientUnits="objectBoundingBox"><stop offset="0" stop-color="#311652"/><stop offset="1" stop-color="#392165"/></linearGradient><linearGradient id="b" y1="0.5" x2="1" y2="0.5" gradientUnits="objectBoundingBox"><stop offset="0" stop-color="#2e2e7e"/><stop offset="0.998" stop-color="#5d4a9d"/></linearGradient><linearGradient id="c" x1="0" y1="0.5" x2="1" y2="0.5" xlink:href="#a"/><linearGradient id="d" x1="0" y1="0.5" x2="1" y2="0.5" xlink:href="#a"/><linearGradient id="e" x1="-0.001" y1="0.5" x2="1.001" y2="0.5" xlink:href="#a"/><linearGradient id="f" y1="0.5" x2="1" y2="0.5" gradientUnits="objectBoundingBox"><stop offset="0" stop-color="#2f3564"/><stop offset="0.143" stop-color="#2a2e5b"/><stop offset="0.691" stop-color="#18183c"/><stop offset="1" stop-color="#110f31"/></linearGradient><linearGradient id="g" y1="0.5" x2="1" y2="0.5" gradientUnits="objectBoundingBox"><stop offset="0" stop-color="#523525"/><stop offset="0.529" stop-color="#764f35"/><stop offset="1" stop-color="#926342"/></linearGradient><linearGradient id="h" x1="0" y1="0.5" x2="1" y2="0.5" xlink:href="#a"/><linearGradient id="i" x1="0" y1="0.501" x2="1" y2="0.501" xlink:href="#a"/><linearGradient id="j" x1="0" y1="0.5" x2="1" y2="0.5" xlink:href="#a"/><linearGradient id="k" x1="0.001" y1="0.5" x2="1" y2="0.5" xlink:href="#a"/><linearGradient id="l" x1="0" y1="0.5" x2="1" y2="0.5" xlink:href="#a"/></defs><g transform="translate(-14.386 -29.4)"><path d="M100.819,539.439q-1.039-3.489-2.273-6.67c-.836-2.161-1.724-4.2-2.672-6.143a58.143,58.143,0,0,0-12.738-17.5,47.509,47.509,0,0,0-17.45-10.246,54.82,54.82,0,0,0-18.067-2.627,72.53,72.53,0,0,0-19.791,3.2c-2.191.655-4.359,1.415-6.5,2.251-2.168.851-4.306,1.784-6.391,2.8h0a.983.983,0,0,0-.489.542.913.913,0,0,0,.038.715l.03.06c.407.79,9.109,17.789,24,30.466,15.064,12.828,36.428,21.244,61.926,4.223a.977.977,0,0,0,.376-.482,1,1,0,0,0,.008-.595ZM15.631,505.833a100.123,100.123,0,0,1,13.453,1.137c-2.191,1.31-7.152,4.314-9.252,5.977-2.236-3.47-3.659-6.083-4.2-7.114Zm4.69,7.867.008-.008c2.424-1.942,9.162-5.925,10.163-6.519,3.651.565,7.822,1.37,12.369,2.507L26,521.65c-2.228-2.853-4.133-5.578-5.684-7.95Zm6.241,8.657L44,509.974a137.853,137.853,0,0,1,13.513,4.253c-3.4,2.612-19.633,15.139-22.148,17.872a98.9,98.9,0,0,1-8.8-9.741Zm9.448,10.359c2.529-2.77,20.461-16.562,22.486-18.12,3.794,1.445,7.694,3.132,11.646,5.1L44.78,539.732a.432.432,0,0,0-.083.083c-1.927-1.34-3.779-2.778-5.541-4.276-1.084-.911-2.13-1.859-3.147-2.823Zm9.448,7.626,25.565-20.205c3.087,1.566,6.2,3.3,9.312,5.224C76.24,528.711,55,545.25,54.928,545.3a.471.471,0,0,0-.136.166,56.115,56.115,0,0,1-9.335-5.119Zm10.246,5.5c2.251-1.754,22.125-17.232,25.437-19.972,2.68,1.686,5.36,3.516,8.017,5.5-4.63,4.931-21.869,17.089-21.922,17.126a.467.467,0,0,0-.188.294A44.145,44.145,0,0,1,55.7,545.837ZM68.215,548.9c2.763-1.957,17.465-12.482,21.673-17,1.7,1.295,3.4,2.65,5.081,4.073-1.859,1.679-10.223,9.094-16.291,12.135a.453.453,0,0,0-.256.444,41.077,41.077,0,0,1-10.208.346Zm12.211-.7c6.083-3.455,13.648-10.193,15.229-11.631,1.28,1.1,2.552,2.243,3.809,3.418A54.733,54.733,0,0,1,80.425,548.2Zm19.189-9.32c-1.159-1.076-2.334-2.123-3.508-3.132a54.943,54.943,0,0,0-1.528-9.516c.136.271.271.549.407.821q1.4,2.868,2.635,6.06,1.061,2.755,1.995,5.766Zm-6.12-14.7a.456.456,0,0,0-.226.512,73.056,73.056,0,0,1,1.9,10.261c-1.619-1.355-3.252-2.657-4.886-3.892a86.57,86.57,0,0,0-2.853-15.944,59.74,59.74,0,0,1,6.068,9.064ZM86.4,513.9a.438.438,0,0,0-.143.474,84.886,84.886,0,0,1,3.041,15.952q-3.851-2.846-7.739-5.277C81.5,523.4,81.1,513.6,79.04,506.985c1.167.888,2.311,1.844,3.418,2.861A50.35,50.35,0,0,1,86.4,513.9Zm-8.349-7.656a.429.429,0,0,0-.068.414c2,5.932,2.529,15,2.642,17.8-3.064-1.89-6.135-3.591-9.177-5.134A47.844,47.844,0,0,0,69.8,501.512a47.159,47.159,0,0,1,8.251,4.735ZM68.817,501.1a.475.475,0,0,0-.015.339c.008.023,2.567,6.963,1.769,17.465-3.96-1.972-7.874-3.659-11.684-5.112.263-4.464-1.686-14.574-1.965-15.952a50.528,50.528,0,0,1,8.439,1.98c1.174.376,2.319.805,3.455,1.28ZM56,497.7a.374.374,0,0,0,.008.158c.008.03,2.168,10.773,1.987,15.591a137.572,137.572,0,0,0-13.686-4.321,49.923,49.923,0,0,0-3-11.48q3.162-.361,6.316-.407A56.46,56.46,0,0,1,56,497.7Zm-15.613.053a.626.626,0,0,0,.03.113,49.683,49.683,0,0,1,2.951,11.014c-4.63-1.167-8.883-1.995-12.6-2.575a32.128,32.128,0,0,0-2.176-6.068,76.124,76.124,0,0,1,11.8-2.484Zm-12.677,2.755.023.068a31.441,31.441,0,0,1,2.055,5.586,106.515,106.515,0,0,0-13.513-1.22q2.654-1.253,5.4-2.326C23.649,501.843,25.666,501.136,27.714,500.511Z" transform="translate(0 -116.604)" fill="#d0d3ea" fill-rule="evenodd"/><g transform="translate(42.836 347.048)"><path d="M92.982,523.691c-2.093-5.345-6.941-14.559-17.864-25.166-17.277-16.773-28.757-36.315-19.844-44.19,8.748-7.724,33.989,17.1,47.924,67.6A54.334,54.334,0,0,1,92.982,523.691Z" transform="translate(-52.178 -452.948)" fill="#8896ca" fill-rule="evenodd"/><path d="M99.323,521.648a12.7,12.7,0,0,0-4.1-.391.264.264,0,0,1-.03-.527,13.729,13.729,0,0,1,3.937.324c-.263-.843-.527-1.671-.79-2.492-.881-.226-3.734-.956-4.818-1.152a.26.26,0,1,1,.09-.512c1,.181,3.418.79,4.539,1.076q-.757-2.292-1.528-4.472a60.027,60.027,0,0,0-6.587-1.031.261.261,0,0,1,.053-.519c2.755.271,5.225.745,6.331.971-.527-1.46-1.061-2.891-1.6-4.276a87.807,87.807,0,0,0-9.4-1.476.261.261,0,0,1,.053-.519A88.243,88.243,0,0,1,94.6,508.06q-1.073-2.733-2.176-5.27a34.494,34.494,0,0,0-10.411-1.348.264.264,0,0,1-.045-.527,33.938,33.938,0,0,1,10.193,1.25q-1.355-3.105-2.748-5.94c-1.7-.3-8.574-1.378-12.263.12a.26.26,0,0,1-.2-.482c3.576-1.453,9.967-.58,12.173-.218q-1.479-2.992-2.981-5.691a54.828,54.828,0,0,0-12.105,1.317.263.263,0,0,1-.12-.512,54.98,54.98,0,0,1,11.932-1.332q-.892-1.592-1.777-3.079a58.847,58.847,0,0,0-13.859,1.581.263.263,0,0,1-.12-.512,61.069,61.069,0,0,1,13.648-1.6q-2.123-3.5-4.2-6.467c-1.6.143-9.711.918-14.251,2.507a.26.26,0,1,1-.173-.489c4.359-1.521,11.924-2.3,14.078-2.507q-1.22-1.716-2.4-3.252a77.741,77.741,0,0,0-13.716,2.642.26.26,0,0,1-.151-.5,78.021,78.021,0,0,1,13.49-2.635c-1.852-2.379-3.644-4.442-5.322-6.226a47.424,47.424,0,0,0-12.173,1.558.26.26,0,0,1-.151-.5A47.1,47.1,0,0,1,70.6,468.379c-.7-.723-1.37-1.4-2.025-2.033a40.654,40.654,0,0,0-10.246.188.262.262,0,1,1-.068-.519,42.823,42.823,0,0,1,9.689-.263,42.613,42.613,0,0,0-8.906-6.775.382.382,0,0,1-.166-.527.389.389,0,0,1,.534-.166,29.947,29.947,0,0,1,4.2,2.763A23.479,23.479,0,0,0,62,457.953a.261.261,0,1,1,.369-.369,32.18,32.18,0,0,1,2.153,4.163c1.046.828,2.228,1.822,3.516,3.011l-1.348-5.608a.26.26,0,0,1,.2-.316.265.265,0,0,1,.316.2l1.528,6.376q1.321,1.253,2.755,2.763l-1.325-6.58a.261.261,0,1,1,.512-.105l1.491,7.415c1.43,1.543,2.928,3.275,4.472,5.232l-.911-6.708a.262.262,0,0,1,.519-.068l1.031,7.6c.7.911,1.415,1.859,2.13,2.861l-.693-6.015a.265.265,0,1,1,.527-.06l.805,6.964c1.325,1.882,2.672,3.922,4.02,6.128l-.233-5.774a.26.26,0,0,1,.519-.023l.271,6.715c.535.888,1.069,1.807,1.6,2.74l.128-4.336a.272.272,0,0,1,.271-.256.267.267,0,0,1,.256.271l-.151,5.2q1.479,2.654,2.943,5.593l.3-4.8a.264.264,0,0,1,.527.03l-.354,5.706q1.276,2.608,2.529,5.435l.452-4.216a.261.261,0,0,1,.519.053l-.55,5.134q1.084,2.5,2.146,5.179l.843-3.7a.263.263,0,1,1,.512.12l-1.016,4.457q.757,1.954,1.506,4l1.137-3.056a.261.261,0,0,1,.339-.151.272.272,0,0,1,.158.339l-1.355,3.644q.678,1.9,1.34,3.884l.851-1.95a.263.263,0,0,1,.482.211l-1.084,2.484c.324.994.647,2.01.971,3.034l1.235-1.475a.262.262,0,1,1,.4.339l-1.453,1.731q.384,1.265.768,2.552c-.263.053-.519.105-.775.151C99.812,523.267,99.571,522.454,99.323,521.648Z" transform="translate(-53.626 -454.074)" fill="#fff" fill-rule="evenodd"/></g><g transform="translate(133.955 308.451)"><path d="M227.132,518.733a114.858,114.858,0,0,0,8.07-16.916c8.055-21.387,6.73-40.064-.422-55.58-7.144-15.5-20.092-27.839-35.307-36.594a115.146,115.146,0,0,0-16.84-7.927.618.618,0,0,0-.8.361.139.139,0,0,0-.015.053c-.6,1.656-35.48,98.9,44.619,116.934A.652.652,0,0,0,227.132,518.733Z" transform="translate(-173.753 -401.676)" fill="#d0d3ea" fill-rule="evenodd"/><path d="M185.009,407.311a.573.573,0,0,0-.813-.023.58.58,0,0,0-.023.813,121.436,121.436,0,0,1,10.788,13.648c-3.132-.873-10.291-2.823-13.6-3.267a.574.574,0,1,0-.158,1.137c3.877.519,13.362,3.207,14.77,3.613,2.62,3.862,5.48,8.409,8.341,13.6l-25.58-4.969a.571.571,0,0,0-.218,1.122l26.514,5.149a173.692,173.692,0,0,1,7.716,16.193c-5.36-.828-31.053-4.758-35.623-4.637a.572.572,0,1,0,.03,1.144c4.713-.12,32.92,4.238,36.1,4.735,1.935,4.765,3.741,9.847,5.33,15.222L178.241,465.1a.574.574,0,1,0-.158,1.137l40.862,5.759q1.829,6.335,3.207,13.189c-6.625-.821-40.185-5.8-40.29-5.819a.571.571,0,0,0-.166,1.129c.105.015,34.991,5.194,40.689,5.872q1.129,5.94,1.837,12.233c-8.537.083-34.614-5.074-34.689-5.089a.576.576,0,1,0-.226,1.129c.075.015,26.439,5.224,35.036,5.1.279,2.71.489,5.465.617,8.273-3.147-.233-17.2-1.393-25.234-4.306a.576.576,0,0,0-.391,1.084c8.288,3,22.788,4.171,25.686,4.374.09,2.206.128,4.434.128,6.693a.576.576,0,1,0,1.152.008q.011-3.546-.135-7c3.568-3.5,8.718-11.736,8.733-11.766a.573.573,0,0,0-.971-.61,94.6,94.6,0,0,1-7.837,10.8c-.143-2.688-.346-5.337-.617-7.935A111.141,111.141,0,0,0,238.4,481.515a.573.573,0,0,0-.994-.572,110.064,110.064,0,0,1-12.1,16.87c-.459-4.035-1.069-7.965-1.8-11.781,1.521-1.551,10.72-11.1,14.9-18.971a.574.574,0,0,0-1.016-.534c-3.749,7.076-11.669,15.553-14.153,18.135-.9-4.487-1.972-8.815-3.169-12.978,10.848-8.785,15.259-17.676,15.274-17.706a.577.577,0,0,0-1.031-.519c-.015.023-4.216,8.507-14.6,17.029-1.6-5.39-3.41-10.487-5.345-15.267,4.66-3.96,13.129-16,13.152-16.042a.573.573,0,0,0-.941-.655c-.023.038-8.078,11.5-12.67,15.576a174.888,174.888,0,0,0-7.807-16.419,65.451,65.451,0,0,0,8.078-13.039.574.574,0,1,0-1.046-.474,64.383,64.383,0,0,1-7.618,12.429c-2.906-5.292-5.812-9.937-8.484-13.874a41.368,41.368,0,0,0,3.757-7.445.574.574,0,1,0-1.077-.4,41.289,41.289,0,0,1-3.38,6.82A125.654,125.654,0,0,0,185.009,407.311Z" transform="translate(-174.449 -403.025)" fill="#fff" fill-rule="evenodd"/></g><path d="M656.489,485.061q-2.45-3.625-4.479-7.2-2.066-3.625-3.689-7.159a70.754,70.754,0,0,1-6.693-25.129,56.928,56.928,0,0,1,3.531-23.924A64.864,64.864,0,0,1,656.2,402.975a84.961,84.961,0,0,1,17.721-15.809q3.365-2.27,6.941-4.283,3.613-2.033,7.355-3.757h0a1.154,1.154,0,0,1,.866-.038,1.11,1.11,0,0,1,.632.58l.03.075c.437.979,9.674,22,10.3,45.432.632,23.7-7.505,49.843-42.278,60.353a1.15,1.15,0,0,1-.73-.023,1.135,1.135,0,0,1-.549-.444ZM688.92,380.789a119.031,119.031,0,0,0-8.981,13.272c2.846-1.024,9.327-3.3,12.436-3.967-1.551-4.705-2.906-8.017-3.455-9.3Zm3.787,10.336h-.015c-3.606.753-12.316,3.915-13.611,4.389-2.2,3.794-4.57,8.258-6.9,13.317l23.646-6.391c-.986-4.231-2.085-8.07-3.117-11.315Zm3.35,12.376-24.466,6.617a164.369,164.369,0,0,0-6.143,15.711c4.953-1.137,28.652-6.527,33.056-6.768a119.89,119.89,0,0,0-2.447-15.561Zm2.544,16.637c-4.449.211-30.587,6.211-33.538,6.888-1.491,4.607-2.838,9.493-3.967,14.635l37.46-8.07a.828.828,0,0,1,.135-.015c.2-2.808.248-5.608.173-8.371-.038-1.7-.135-3.4-.263-5.066Zm.008,14.552-37.768,8.138c-.858,4.043-1.573,8.243-2.108,12.587,6.158-1.22,37.3-8.168,37.4-8.191a.493.493,0,0,1,.256.008,68.25,68.25,0,0,0,2.221-12.542Zm-2.552,13.656c-3.3.738-32.454,7.234-37.46,8.2-.437,3.764-.745,7.633-.888,11.593,8.01-.5,32.122-7.107,32.2-7.122a.561.561,0,0,1,.414.053,53.048,53.048,0,0,0,5.736-12.723Zm-6.5,13.874c-3.869,1.046-24.572,6.564-31.889,6.994-.075,2.56-.083,5.164-.023,7.8,2.936-.429,16.042-2.477,23.382-5.751a.552.552,0,0,1,.6.105,48.326,48.326,0,0,0,7.927-9.147Zm-9.756,10.72c-7.739,2.974-19.618,4.8-22.125,5.157q.1,3.038.324,6.128a63.537,63.537,0,0,0,21.8-11.285Zm-22.931,10.585c-.128-1.9-.226-3.772-.279-5.631a66.777,66.777,0,0,1-7.664-8.68c.151.331.3.67.459,1.009q1.615,3.489,3.644,7.069,1.739,3.06,3.839,6.233Zm-9.041-16.893a.53.53,0,0,1,.64.181,88.933,88.933,0,0,0,8.085,9.6q-.079-3.794.045-7.49A105.245,105.245,0,0,1,643.978,454.1a71,71,0,0,0,3.854,12.534Zm-4.223-14.394a.554.554,0,0,1,.55.226,103.456,103.456,0,0,0,12.489,15q.237-5.725.888-11.172c-1.483-1.31-10.253-9.184-14.845-16.133-.053,1.754-.015,3.538.1,5.345a64.558,64.558,0,0,0,.821,6.73Zm-.851-13.558a.54.54,0,0,1,.437.256c4,6.384,12,13.8,14.507,16.057.542-4.268,1.25-8.4,2.093-12.384a57.978,57.978,0,0,1-15.259-15.147,55.279,55.279,0,0,0-1.777,11.217Zm2.115-12.444a.572.572,0,0,1,.324.241c.015.023,4.532,7.694,14.845,14.988,1.129-5.164,2.484-10.065,3.975-14.687-4.329-3.162-12.226-12.7-13.3-14.01a59.578,59.578,0,0,0-4.457,9.3c-.519,1.37-.979,2.755-1.385,4.171Zm6.414-14.424a.531.531,0,0,1,.143.12c.023.03,8.356,10.238,12.941,13.754a165.5,165.5,0,0,1,6.2-15.929,60.875,60.875,0,0,1-8.386-11.548q-2.688,2.642-5.089,5.511a68.85,68.85,0,0,0-5.812,8.093Zm11.691-14.364a1.08,1.08,0,0,1,.083.113,60.586,60.586,0,0,0,7.987,11.142c2.371-5.164,4.78-9.711,7.016-13.588a38.885,38.885,0,0,1-3.99-6.64,88.134,88.134,0,0,0-11.1,8.973Zm12.007-9.583a.235.235,0,0,1,.038.075,39.007,39.007,0,0,0,3.636,6.165,125.964,125.964,0,0,1,8.951-13.4q-3.128,1.491-6.173,3.2Q678.151,385.747,674.986,387.866Z" transform="translate(-156.684 -87.626)" fill="#c2c2c2" fill-rule="evenodd"/><g transform="translate(497.765 321.593)"><path d="M673.079,516.7c3.35-7.4,10.878-20.145,27.094-34.328,25.648-22.426,43.317-49.2,31.294-60.985-11.789-11.563-49.354,21.839-72.767,92.181C664.866,514.715,669.1,515.739,673.079,516.7Z" transform="translate(-658.7 -419.134)" fill="#d0d3ea" fill-rule="evenodd"/><path d="M667.929,513.335a17.933,17.933,0,0,1,5.812-.248.371.371,0,1,0,.075-.738,19.461,19.461,0,0,0-5.593.166q.644-1.75,1.3-3.455c1.265-.256,5.345-1.077,6.9-1.272a.372.372,0,0,0-.09-.738c-1.423.181-4.886.866-6.489,1.189.821-2.123,1.656-4.193,2.492-6.2a85.972,85.972,0,0,1,9.38-.971.373.373,0,0,0-.038-.745,85.331,85.331,0,0,0-9.019.911q1.276-3.049,2.575-5.925a121.793,121.793,0,0,1,13.4-1.393.369.369,0,1,0-.038-.738,123.76,123.76,0,0,0-12.994,1.317q1.716-3.783,3.463-7.287c1.747-.391,9.019-1.9,14.815-1.129a.368.368,0,1,0,.1-.73c-5.405-.715-12.03.5-14.5,1.016q2.145-4.291,4.329-8.2c2.424-.3,12.226-1.31,17.322,1.077a.367.367,0,0,0,.489-.181.36.36,0,0,0-.181-.489c-4.946-2.311-14.04-1.558-17.187-1.2q2.315-4.122,4.63-7.822a77.678,77.678,0,0,1,17.006,2.755.369.369,0,1,0,.211-.708,78.174,78.174,0,0,0-16.765-2.77c.918-1.453,1.829-2.853,2.74-4.216a83.884,83.884,0,0,1,19.468,3.252.372.372,0,1,0,.2-.715,86.566,86.566,0,0,0-19.174-3.267q3.252-4.8,6.414-8.83c2.251.316,13.656,2.018,19.957,4.592a.37.37,0,1,0,.279-.685c-6.053-2.469-16.682-4.133-19.7-4.577q1.841-2.326,3.636-4.419a109.3,109.3,0,0,1,19.189,4.75.374.374,0,0,0,.474-.218.369.369,0,0,0-.226-.474,109.6,109.6,0,0,0-18.865-4.713c2.8-3.222,5.48-6.007,7.98-8.4,1.875.1,10.359.662,17.089,3.1a.369.369,0,0,0,.256-.693c-6.188-2.236-13.814-2.921-16.607-3.1q1.558-1.457,3.011-2.718a57.557,57.557,0,0,1,14.461,1.024.372.372,0,0,0,.143-.73,60.259,60.259,0,0,0-13.671-1.092c7.837-6.632,13.046-8.9,13.084-8.921a.558.558,0,1,0-.459-1.016,42.539,42.539,0,0,0-6.135,3.6,32.924,32.924,0,0,1,2.514-4.246.373.373,0,0,0-.5-.557,46.064,46.064,0,0,0-3.35,5.729c-1.543,1.092-3.282,2.417-5.187,4l2.311-7.822a.369.369,0,0,0-.708-.211l-2.635,8.9q-1.954,1.671-4.1,3.7l2.356-9.2a.37.37,0,1,0-.715-.188l-2.65,10.366c-2.13,2.07-4.374,4.411-6.708,7.061l1.777-9.418a.372.372,0,1,0-.73-.143l-2.018,10.667c-1.061,1.235-2.138,2.522-3.222,3.877l1.423-8.454a.368.368,0,0,0-.3-.429.364.364,0,0,0-.429.3l-1.649,9.787q-3.015,3.839-6.135,8.364l.753-8.138a.371.371,0,0,0-.738-.075l-.873,9.47c-.821,1.212-1.641,2.469-2.462,3.757l.135-6.135a.369.369,0,1,0-.738-.015l-.166,7.37q-2.281,3.647-4.577,7.686l-.068-6.8a.373.373,0,1,0-.745.008l.083,8.085q-2,3.591-3.975,7.5l-.324-5.992a.373.373,0,0,0-.745.038l.4,7.295c-1.144,2.3-2.281,4.682-3.41,7.159l-.918-5.3a.364.364,0,0,0-.429-.3.368.368,0,0,0-.3.429l1.107,6.369q-1.22,2.7-2.417,5.548l-1.385-4.4a.371.371,0,0,0-.708.226l1.649,5.247c-.73,1.762-1.46,3.553-2.183,5.39l-1.054-2.815a.374.374,0,0,0-.7.264l1.348,3.6q-.8,2.066-1.588,4.216l-1.641-2.176a.371.371,0,0,0-.595.444l1.927,2.552c-.429,1.167-.768,2.108-1.189,3.3.369.09.738.158,1.1.241C667.207,515.314,667.523,514.456,667.929,513.335Z" transform="translate(-660.228 -420.697)" fill="#fff" fill-rule="evenodd"/></g><g transform="translate(477.42 411.776)"><path d="M651.771,542.619a14.718,14.718,0,0,0-4.893,5.112c-2.2,3.787-12.143,6.263-13.656,7.069-1.626.873-3.508,4.427,3.184,4.652s14.07,1.807,17.826-1.588c4.833-4.374,11.345-6.482,11.345-10s-4.818-8.936-4.818-8.936Z" transform="translate(-631.675 -538.93)" fill="#163342"/></g><g transform="translate(495.586 333.171)"><path d="M664.9,501.18c.5-5.179,2.326-13.588,8.206-23.864,9.975-17.443,14.431-36.459,5.029-42.067-9.064-5.405-23.187,19.325-22.291,64.463l9.034,1.468Z" transform="translate(-655.806 -434.515)" fill="#8896ca" fill-rule="evenodd"/><path d="M676.6,442.07a.682.682,0,0,0-1.084-.828,48.936,48.936,0,0,0-3.3,5.066l.263-3.907a.453.453,0,0,0-.9-.06l-.391,5.8c-.851,1.566-1.777,3.4-2.718,5.465l-.474-4.69a.45.45,0,0,0-.5-.407.455.455,0,0,0-.406.5l.64,6.286c-.941,2.183-1.882,4.607-2.763,7.257L664.4,458.5a.456.456,0,0,0-.9.12l.828,5.917c-.873,2.816-1.686,5.857-2.371,9.132l-.964-3.8a.454.454,0,0,0-.881.218l1.438,5.654c-.587,3.109-1.054,6.414-1.37,9.892l-1.054-2.07a.453.453,0,0,0-.806.414l1.724,3.388c-.2,2.672-.3,5.443-.286,8.311l-1.137-2.033a.453.453,0,0,0-.79.444l1.957,3.493q.045,2.123.181,4.314l1.378.226c-.09-1.468-.158-2.906-.188-4.321a16.431,16.431,0,0,1,3.749-3.358.455.455,0,0,0-.376-.828,14.14,14.14,0,0,0-3.4,2.868c-.015-1.114-.008-2.206.008-3.29a19.144,19.144,0,0,1,4.826-3.373.46.46,0,0,0,.248-.595.451.451,0,0,0-.595-.241,18.48,18.48,0,0,0-4.442,2.966c.068-2.213.2-4.366.391-6.444,1.423-.813,5.977-3.342,8.349-3.877a.455.455,0,0,0,.346-.542.461.461,0,0,0-.542-.346c-2.228.5-6.188,2.627-8.04,3.659.226-2.213.519-4.359.866-6.414a41.618,41.618,0,0,1,10-4.479.454.454,0,0,0-.218-.881,40.775,40.775,0,0,0-9.583,4.193c.181-1.009.376-2,.58-2.974a44.118,44.118,0,0,1,11.9-5.684.455.455,0,1,0-.256-.873,44.791,44.791,0,0,0-11.367,5.285,96.768,96.768,0,0,1,2.7-9.651c1.912-.708,9.38-3.425,13.392-4.028a.457.457,0,0,0-.135-.9c-3.711.565-10.238,2.853-12.873,3.817.76-2.176,1.558-4.186,2.349-6.022,1.9-.5,8.921-2.341,10.652-2.688a.455.455,0,0,0,.361-.534.445.445,0,0,0-.534-.354c-1.588.316-7.475,1.852-10.012,2.514,1.061-2.379,2.108-4.449,3.056-6.173,1.822-.361,6.211-1.212,7.317-1.355a.459.459,0,0,0,.4-.512.44.44,0,0,0-.5-.391c-.986.12-4.539.805-6.625,1.22A46.032,46.032,0,0,1,676.6,442.07Z" transform="translate(-656.292 -436.112)" fill="#d0d3ea" fill-rule="evenodd"/></g><g transform="translate(144.887 381.188)"><path d="M225.774,548.286c-2.4-3.967-7.114-10.027-15.8-16.027C195.225,522.081,184.3,508.515,189.7,500.37c5.2-7.844,26.1,6.595,42.8,43.234l-6.692,4.667Z" transform="translate(-188.298 -498.298)" fill="#8896ca" fill-rule="evenodd"/><path d="M194.614,504.974a.611.611,0,1,1,.55-1.092,42.76,42.76,0,0,1,4.607,2.8l-1.716-3.041a.4.4,0,1,1,.7-.4l2.552,4.517c1.295.933,2.74,2.04,4.3,3.342l-1.423-3.952a.4.4,0,1,1,.76-.279l1.912,5.3c1.6,1.393,3.29,2.974,5.021,4.765l-1.107-3.478a.407.407,0,0,1,.775-.248l1.619,5.081c1.792,1.927,3.613,4.058,5.428,6.429l-.693-3.433a.4.4,0,0,1,.79-.158l1.024,5.1c1.671,2.273,3.32,4.75,4.916,7.423l.053-2.078a.415.415,0,0,1,.414-.4.41.41,0,0,1,.4.414l-.083,3.388q1.784,3.105,3.44,6.572l.128-2.07a.4.4,0,1,1,.806.053l-.226,3.561c.519,1.152,1.031,2.334,1.521,3.538l-1.024.715q-.734-1.818-1.513-3.553a14.775,14.775,0,0,0-4.306-1.257.407.407,0,0,1-.015-.813,12.554,12.554,0,0,1,3.832.994c-.422-.9-.843-1.777-1.28-2.642a17.143,17.143,0,0,0-5.179-.851.407.407,0,0,1-.045-.813,16.415,16.415,0,0,1,4.72.67q-1.366-2.631-2.808-5.029c-1.46-.105-6.09-.384-8.206.105a.406.406,0,0,1-.489-.3.4.4,0,0,1,.3-.482,35.917,35.917,0,0,1,7.874-.158c-1.039-1.694-2.1-3.3-3.169-4.826a37.066,37.066,0,0,0-9.771.256.407.407,0,1,1-.166-.8,36.522,36.522,0,0,1,9.327-.331c-.535-.745-1.077-1.468-1.611-2.168a39.367,39.367,0,0,0-11.766.023.4.4,0,0,1-.135-.8,40.01,40.01,0,0,1,11.179-.135,86.491,86.491,0,0,0-5.887-6.723c-1.814.166-8.861.866-12.323,1.927a.4.4,0,0,1-.5-.271.4.4,0,0,1,.271-.5,77.5,77.5,0,0,1,11.827-1.9c-1.453-1.46-2.868-2.763-4.208-3.937-1.724.331-8.078,1.558-9.6,1.95a.407.407,0,0,1-.5-.294.4.4,0,0,1,.294-.489c1.4-.354,6.723-1.393,9.019-1.837-1.769-1.506-3.41-2.763-4.841-3.787-1.6.414-5.465,1.423-6.406,1.739a.407.407,0,0,1-.512-.256.4.4,0,0,1,.256-.512c.843-.279,3.96-1.1,5.8-1.581A49.223,49.223,0,0,0,194.614,504.974Z" transform="translate(-189.569 -499.47)" fill="#d0d3ea" fill-rule="evenodd"/></g><g transform="translate(496.508 409.714)"><path d="M657.03,540.1l1.009,1.837s6.655-1.882,8.989-3.689l-1.009-2.063Z" transform="translate(-657.03 -536.19)" fill="#163342"/></g><g transform="translate(478.832 421.45)"><path d="M645.9,561.913a112.9,112.9,0,0,1-12.354-.918l.06-.489c.158.023,15.6,2.033,18.15.053,1.182-.918,3.636-2.6,6.007-4.223,2.808-1.92,5.985-4.1,6.354-4.555l.384.309a66.962,66.962,0,0,1-6.459,4.645c-2.364,1.619-4.81,3.3-5.985,4.2C651.121,561.672,648.7,561.913,645.9,561.913Z" transform="translate(-633.55 -551.78)" fill="#1b1d1f"/></g><g transform="translate(493.802 417.483)"><g transform="translate(1.901)"><rect width="0.489" height="5.247" transform="matrix(0.535, -0.845, 0.845, 0.535, 0, 0.413)" fill="#1b1d1f"/></g><g transform="translate(0.974 1.28)"><path d="M658.366,550.928l-3.636-2.3.264-.414,3.629,2.3Z" transform="translate(-654.73 -548.21)" fill="#1b1d1f"/></g><g transform="translate(0 2.55)"><rect width="0.489" height="3.169" transform="translate(0 0.413) rotate(-57.65)" fill="#1b1d1f"/></g></g><g transform="translate(375.461 417.987)"><path d="M518.315,547.18a25.215,25.215,0,0,0-5.849,4.08c-3.177,2.883-14.2,2.492-16.238,4.893,0,0-2.808,2.537,3.019,4.246s18.143,1.009,23.1,1.34c1.694.113,9.756.617,10.283-.233.376-.61.324-4.765-1.114-8.748a21.084,21.084,0,0,0-1.769-4.163Z" transform="translate(-495.552 -547.18)" fill="#163342"/></g><g transform="translate(398.201 415.51)"><path d="M526.3,543.89l-.519,2.477a24.336,24.336,0,0,0,11.42,1.408l.369-2.334Z" transform="translate(-525.78 -543.89)" fill="#163342"/></g><g transform="translate(376.357 428.616)"><path d="M532.009,564.5c-.128-.008-12.722-.452-21.244-.286a33.966,33.966,0,0,1-14.025-2.469l.211-.444a33.378,33.378,0,0,0,13.8,2.424c8.529-.166,21.146.279,21.267.286Z" transform="translate(-496.74 -561.3)" fill="#1b1d1f"/></g><g transform="translate(395.611 420.29)"><rect width="0.489" height="5.247" transform="translate(0 0.383) rotate(-51.529)" fill="#1b1d1f"/></g><g transform="translate(394.561 421.439)"><rect width="0.489" height="4.306" transform="translate(0 0.383) rotate(-51.529)" fill="#1b1d1f"/></g><g transform="translate(393.476 422.639)"><path d="M521.944,555.716l-2.484-1.98.309-.376,2.484,1.972Z" transform="translate(-519.46 -553.36)" fill="#1b1d1f"/></g><path d="M238.149,550.71s-2.507,7.355-2.6,8.575-.09,3.96,7.942,3.93,2.5-12.5,2.5-12.5Z" transform="translate(-55.169 -130.066)" fill="#163342"/><g transform="translate(395.852 228.565)"><path d="M577.576,317.9s13.814,31.972,18.858,43.994c5.352,12.768,7.332,35.518,19.151,55.407,12.594,21.192,20.333,58.222,19.822,58.561s-12.948,5.97-13.995,4.931c-3.629-3.606-23.894-57.868-25.942-59.916s-7-15.146-10.517-20.574c-4.1-6.316-24.752-43.369-27.651-42.346s-5.285,41.66-7.505,47.961-2.62,11.864-2.386,22.848c.181,8.778-6.158,56.769-6.158,56.769L524.367,483.6s.888-57.387,1.069-59.163a107.613,107.613,0,0,0,.083-15.086c0-1.536-3.388-50.235-1.746-94.816C525.421,269.964,577.576,317.9,577.576,317.9Z" transform="translate(-523.324 -295.56)" fill="#cececd"/></g><rect width="316.232" height="224.277" transform="translate(81.487 37.041)" fill="#e2f3fc"/><g transform="translate(92.342 68.094)"><path d="M208.8,231.068h-81.6a9.25,9.25,0,0,1-9.252-9.252V90.052a9.25,9.25,0,0,1,9.252-9.252H208.8a9.25,9.25,0,0,1,9.252,9.252V221.816A9.266,9.266,0,0,1,208.8,231.068Z" transform="translate(-117.94 -80.8)" fill="#cfecf7"/><path d="M117.94,88.057a7.271,7.271,0,0,1,7.31-7.227h85.5a7.271,7.271,0,0,1,7.31,7.227v5.789H117.94Z" transform="translate(-117.94 -80.807)" fill="#5d8dc9" opacity="0.57"/><g transform="translate(64.614 4.125)" opacity="0.58"><ellipse cx="2.906" cy="2.868" rx="2.906" ry="2.868" transform="translate(22.02)" fill="#f06781"/><ellipse cx="2.906" cy="2.868" rx="2.906" ry="2.868" transform="translate(11.006)" fill="#ffce3b"/><ellipse cx="2.906" cy="2.868" rx="2.906" ry="2.868" fill="#83c566"/></g><rect width="26.634" height="26.326" transform="translate(91.478 46.064) rotate(180)" fill="#fff" opacity="0.39"/><rect width="34.418" height="6.068" transform="translate(60.138 26.171) rotate(180)" fill="#fff" opacity="0.39"/><rect width="51.394" height="3.493" transform="translate(60.14 33.189) rotate(180)" fill="#aed2ef" opacity="0.39"/><rect width="51.394" height="3.493" transform="translate(60.14 39.624) rotate(180)" fill="#aed2ef" opacity="0.39"/><rect width="82.734" height="3.493" transform="translate(91.479 52.736) rotate(180)" fill="#aed2ef" opacity="0.39"/><rect width="52.508" height="3.493" transform="translate(91.476 59.178) rotate(180)" fill="#aed2ef" opacity="0.39"/><rect width="82.734" height="3.493" transform="translate(91.479 80.349) rotate(180)" fill="#aed2ef" opacity="0.39"/><rect width="82.734" height="3.365" transform="translate(91.479 86.651) rotate(180)" fill="#aed2ef" opacity="0.39"/><rect width="82.734" height="3.493" transform="translate(91.479 93.812) rotate(180)" fill="#aed2ef" opacity="0.39"/><rect width="82.734" height="3.365" transform="translate(91.479 100.122) rotate(180)" fill="#aed2ef" opacity="0.39"/><rect width="33.508" height="3.493" transform="translate(60.137 46.066) rotate(180)" fill="#aed2ef" opacity="0.39"/><rect width="82.433" height="3.493" transform="translate(91.181 115.779) rotate(180)" fill="#aed2ef" opacity="0.39"/><rect width="82.433" height="3.493" transform="translate(91.181 122.214) rotate(180)" fill="#aed2ef" opacity="0.39"/><rect width="53.751" height="3.493" transform="translate(91.183 128.657) rotate(180)" fill="#aed2ef" opacity="0.39"/></g><g transform="translate(267.762 103.829)"><path d="M443.036,194.942h-81.6a9.25,9.25,0,0,1-9.252-9.252V137.872a9.25,9.25,0,0,1,9.252-9.252h81.612a9.25,9.25,0,0,1,9.252,9.252V185.69A9.261,9.261,0,0,1,443.036,194.942Z" transform="translate(-352.18 -128.62)" fill="#cfecf7"/><path d="M352.18,135.877a7.271,7.271,0,0,1,7.31-7.227h85.5a7.271,7.271,0,0,1,7.31,7.227v5.789H352.18Z" transform="translate(-352.18 -128.627)" fill="#5d8dc9" opacity="0.57"/><g transform="translate(64.614 4.125)" opacity="0.58"><ellipse cx="2.906" cy="2.868" rx="2.906" ry="2.868" transform="translate(22.02)" fill="#f06781"/><ellipse cx="2.906" cy="2.868" rx="2.906" ry="2.868" transform="translate(11.006)" fill="#ffce3b"/><ellipse cx="2.906" cy="2.868" rx="2.906" ry="2.868" fill="#83c566"/></g><rect width="26.634" height="26.326" transform="translate(91.479 46.066) rotate(180)" fill="#fff" opacity="0.39"/><rect width="34.418" height="6.068" transform="translate(60.139 26.173) rotate(180)" fill="#fff" opacity="0.39"/><rect width="51.394" height="3.493" transform="translate(60.142 33.191) rotate(180)" fill="#aed2ef" opacity="0.39"/><rect width="51.394" height="3.493" transform="translate(60.142 39.626) rotate(180)" fill="#aed2ef" opacity="0.39"/><rect width="82.734" height="3.493" transform="translate(91.481 52.737) rotate(180)" fill="#aed2ef" opacity="0.39"/><rect width="52.508" height="3.493" transform="translate(91.477 59.18) rotate(180)" fill="#aed2ef" opacity="0.39"/><rect width="33.508" height="3.493" transform="translate(60.138 46.068) rotate(180)" fill="#aed2ef" opacity="0.39"/></g><path d="M523.56,57.91s7.859,12.8,7.859,28.795H523.7Z" transform="translate(-127.017 -7.047)" fill="#f9aa75"/><path d="M520.823,71.6s-.73,8.469,0,10.976,2.733,8.763,2.484,10.261l6.331-6.534s-5.074-6.128-5.578-9.44S523.345,71.638,520.823,71.6Z" transform="translate(-126.256 -10.431)" fill="#fbbc8b"/><path d="M520.93,92.717l1.837,104.475s27.854-16.276,27.688-17.209-10.675-61.919-10.968-67.489-4.411-24.933-4.411-24.933S525.545,93.025,520.93,92.717Z" transform="translate(-126.407 -14.377)" fill="#2cabe1"/><path d="M305.74,540.54,306.071,551s5.24,1.807,7.393-.5l2.251-9.967H305.74Z" transform="translate(-72.683 -127.552)" fill="#f7afaa"/><path d="M241.3,537.264l-2.281,9.689a5.825,5.825,0,0,0,7.837,0l2.582-11.473Z" transform="translate(-56.039 -126.301)" fill="#f7afaa"/><path d="M528.988,471.259c-.519-5.149.105-27.538.858-34.546s.7-17.525-1.3-51.319c-1.987-33.545-1.287-82.561-1.28-83.283-2.085,3-3.41,7.536-3.651,14.062-1.641,44.581,1.747,93.281,1.747,94.816a108.87,108.87,0,0,1-.083,15.086c-.173,1.769-1.069,59.163-1.069,59.163l4.253.489A97.112,97.112,0,0,0,528.988,471.259Z" transform="translate(-126.916 -68.614)" fill="#919191" opacity="0.5"/><path d="M523.111,339.974s24.9,15.35,61.58,4.171l-4.321-10.035H522.93Z" transform="translate(-126.984 -76.027)" fill="#919191" opacity="0.26"/><path d="M520.93,94.18a21.815,21.815,0,0,0,4.246-.7l3.5,82.651-6.346,4.509Z" transform="translate(-126.36 -15.84)" opacity="0.2" fill="url(#a)"/><g transform="translate(183.041 260.409)"><path d="M304.677,337.86s8.175,4.969,9.29,21.3c3.23,47.088-9.869,72.39-10.464,77.667-.527,4.743,1.867,15.666,2.025,18.926.459,9.659-7.069,42.443-7.069,42.443a19.236,19.236,0,0,1-5.368.369c-3.162-.286-4.268-1.2-4.268-1.2s-2.01-23.277-1.626-40.29c.2-8.612,1.077-15.335.858-16.863-.828-5.759-4.449-65.652-4.449-65.652s-8.974,37.174-10.6,42.82c-1.491,5.172-4.788,21.576-6.03,24.2a48.473,48.473,0,0,0-2.65,7.633c-.376,1.453-1.348,9.207-2.319,11.337s-13.1,36.21-13.1,36.21a27.643,27.643,0,0,1-4.9-.241,9.336,9.336,0,0,1-4.818-1.792s3.147-35.043,4.931-39.771c1.814-4.8,7.295-13.513,7.408-16.539s-4.193-39.605-3.327-58.358c.828-17.97,1.716-23.179,2.7-27.959s5.541-14.243,5.541-14.243h48.232Z" transform="translate(-239.19 -337.86)" fill="url(#b)"/></g><path d="M619.482,462.312c-3.252-6.76-7.257-23.533-10.261-25.784s-14.522-25.535-22.283-39.3C580.818,386.361,573.019,381.1,570,379.36c5.39,5.051,22.667,35.947,26.378,41.668,3.516,5.42,8.469,18.527,10.517,20.574s22.313,56.318,25.942,59.916c.361.361,2.085-.075,4.208-.821C633.055,500.284,622.734,469.072,619.482,462.312Z" transform="translate(-139.009 -87.71)" fill="#919191" opacity="0.5"/><path d="M307.828,140.82s.836,11.684,1.588,15.689.753,32.047-8.928,32.71-16.359-18.692-16.359-19.693,10.682-15.357,10.682-15.357Z" transform="translate(-67.31 -27.825)" fill="#f7afaa"/><g transform="translate(332.428 206.9)"><path d="M476.761,271.714s-7.182-.911-10.291-1.566c-3.192-.67-8.063-4.306-11.428-4.238s-16.833,2.1-16.833,3.629,8.048,3.5,8.808,4.216,4.02,1.566,6.376,3.124c1.995,1.325,8.447.331,13.016.331a24.577,24.577,0,0,1,8.326,1.528Z" transform="translate(-438.21 -265.909)" fill="#fbbc8b"/></g><path d="M297.758,168.045l.738-.248a28.223,28.223,0,0,0,9.96-9.884c3.839-6.64,3.109-11.962,3.109-11.962S313.522,161.661,299,169.8a8.082,8.082,0,0,0-1.34-.316" transform="translate(-70.672 -29.087)" fill="#f28c8b"/><g transform="translate(389.854 156.463)"><path d="M529.366,200.589s-8.258,4.14-9.7,8.078-6.346,25.227-4.374,34.26,3.9,21.734,4.743,28.065c.881,6.617-.331,32.175,1.972,33.982,11.812,9.26,59.562,5.209,59.735,2.432s-5.97-15.824-7.536-28.132c-.625-4.938,1.2-16.848,1.272-36.8.068-19.633,4.961-32.25-7.167-36.669-11.292-4.11-20.273-6.926-20.273-6.926Z" transform="translate(-514.827 -198.88)" fill="#2cabe1"/></g><path d="M578.342,309.306c-35.653,2.951-47.457-7.957-49.076-13.965s-1.137-34.546-4.893-45.432-3.756-18.406-2.755-29.728a36.65,36.65,0,0,1,7.648-19.031s-8.258,4.14-9.7,8.078-6.346,25.227-4.374,34.26,3.9,21.734,4.743,28.065c.881,6.617-.331,32.175,1.972,33.982,9.952,7.8,45.4,6.15,56.438,3.772Z" transform="translate(-124.94 -42.982)" opacity="0.2" fill="url(#c)"/><path d="M570.976,247.81s-10.946,38.536-15.2,42.707-33.876-6.173-33.876-6.173v-3s25.392-5.337,25.8-5.593S570.976,247.81,570.976,247.81Z" transform="translate(-126.695 -54.536)" fill="#919191" opacity="0.26"/><g transform="translate(362.629 167.827)"><path d="M565.356,229.747s-19.34,47.818-23.269,49.211-35.811-5.548-40.667-7.174-22.81-4.856-22.81-4.856,1.769-9.508,3.967-11.48c0,0,32.3,3.124,41.909,4.863s9.839-3.47,15.056-15.515,9.839-24.429,10.419-25.242,4.63-8.567,12.037-4.4S565.356,229.747,565.356,229.747Z" transform="translate(-478.61 -213.933)" fill="#2cabe1"/></g><path d="M539.779,257.731c1.506-4.314,10.968-36.331,10.968-36.331-.58.813-5.209,13.2-10.419,25.242s-5.443,17.254-15.056,15.515-41.909-4.863-41.909-4.863a7.794,7.794,0,0,0-1.6,2.755c8.281,1.235,35.917,5.285,43.828,5.5,9.342.248,13.686,2.981,13.686,2.981.753-2.778-2.755-5.45-2.755-5.45S538.273,262.044,539.779,257.731Z" transform="translate(-116.721 -47.946)" opacity="0.2" fill="url(#d)"/><path d="M304.679,337.86H256.454s-4.554,9.463-5.541,14.243-1.882,9.99-2.7,27.959c-.858,18.753,3.44,55.339,3.327,58.358s-5.593,11.736-7.408,16.539c-1.784,4.72-4.931,39.771-4.931,39.771A7.7,7.7,0,0,0,241.692,496c1.972-25.9,3.034-34.177,8.221-41.939a29.709,29.709,0,0,0,4.826-19.279c-.248-4.253-11.766-89.373,13.016-86.121s39.8-8.063,39.8-8.07A13.065,13.065,0,0,0,304.679,337.86Z" transform="translate(-56.144 -77.451)" fill="#565756" opacity="0.4"/><g transform="translate(226.135 128.957)"><g transform="translate(10.937 0)"><path d="M315.366,175.722c-1.408.263-2.831-1.031-3.636-3.3a11.836,11.836,0,0,1-.617-2.846c-.346-3.757,1-7.122,3-7.49,1.378-.256,2.74.941,3.568,3.132a11.226,11.226,0,0,1,.678,3.019C318.7,171.988,317.361,175.353,315.366,175.722Zm-1.159-12.587c-1.588.294-2.642,3.124-2.349,6.3a10.207,10.207,0,0,0,.542,2.5c.662,1.859,1.792,2.928,2.876,2.725,1.588-.294,2.635-3.117,2.341-6.3a10.127,10.127,0,0,0-.595-2.65C316.344,163.926,315.268,162.939,314.206,163.135Z" transform="translate(-311.058 -162.055)" fill="#fff"/></g><g transform="translate(0 7.364)"><path d="M296.982,174.316a.443.443,0,0,1-.452-.467.569.569,0,0,1,.452-.587l10.908-1.423a.443.443,0,0,1,.474.467.569.569,0,0,1-.452.587L297,174.316Z" transform="translate(-296.53 -171.836)" fill="#fff"/></g><path d="M317.468,165.643c-3.869,1.588-5.285,6.715-5.285,6.715a10.734,10.734,0,0,1-.58-2.672c-.316-3.47.873-6.557,2.672-6.9C315.533,162.557,316.745,163.731,317.468,165.643Z" transform="translate(-300.243 -162.229)" fill="#fff" opacity="0.58"/></g><g transform="translate(400.996 125.632)"><path d="M530.8,178.53s1.747,8.635,0,13.468-3,19.249,5.729,20,17.074-13.972,17.729-22.155a44.691,44.691,0,0,1-4.494-27.816C552.366,146.212,530.8,178.53,530.8,178.53Z" transform="translate(-529.542 -157.67)" fill="#f9ae7c"/></g><path d="M536.341,196.918A119.607,119.607,0,0,0,549.59,184.03l-18.527,2.529c.406,2.688,1.039,8.371-.256,11.955-1.746,4.833-3,19.249,5.729,20,3.109.271,6.173-1.438,8.861-4.118C530.8,226.27,529.573,202.639,536.341,196.918Z" transform="translate(-128.538 -38.601)" fill="#e29869"/><g transform="translate(426.904 177.271)" opacity="0.2"><path d="M564,239.928c-.008-.354-.128-9,1.837-13.5l.595.263c-1.9,4.374-1.942,12-1.935,12.09Z" transform="translate(-563.995 -226.43)" fill="url(#e)"/></g><path d="M256.269,208.19s-18.361,2.672-14.017,23.7,9.275,17.209,12.948,73.286c0,0,.971,2.507,9.576,5.488,11.578,4.012,32.928.67,32.928.67s12.135-3,10.637-10.351c-1.2-5.887-7.144-24.316-.173-41.563,4.675-11.563,6.007-11.36-3-29.45-6.768-13.573-7.46-19.272-15.275-21.4C287.164,207.821,256.269,208.19,256.269,208.19Z" transform="translate(-56.742 -44.711)" fill="#3985c6"/><path d="M297.67,138.521s-32.047-18.692-44.393,5.006S243.2,201.4,243.2,201.4s29.1,11.224,45.169-2.379c0,0,1.957-14.1-5.714-23.111s2.334-11.684,2.334-11.684S300.673,155.881,297.67,138.521Z" transform="translate(-57.086 -25.522)" fill="url(#f)"/><path d="M525.376,140.82a70.563,70.563,0,0,0-15.786,38.386s2.65,5.24,15.96,3.6,19.106-9.463,19.106-9.463S549.075,145.826,525.376,140.82Z" transform="translate(-123.59 -27.82)" fill="#fbbc8b"/><path d="M296.069,175.23s-5.6-1.694-5.224,4.5,4.314,7.829,4.314,7.829Z" transform="translate(-68.957 -36.331)" fill="#f7afaa"/><path d="M529.823,136.436a3.679,3.679,0,0,1-2.228-3.96,6.252,6.252,0,0,1,1.039-2.349c.881-1.287-.9-2.951.429-4.592s2.386-1.227,2.386-1.227a5.5,5.5,0,0,1,4.389.437,3.724,3.724,0,0,1,2.65.263,4.122,4.122,0,0,1,4.171-.873,3.314,3.314,0,0,1,3.561-.286s2.356-1.061,3.124.715c0,0,3.267-1.927,5.834-.858a5.184,5.184,0,0,1,5.029.113s3.9-.422,5.006,3.267a2.129,2.129,0,0,1,2.913,1.332s3.086-.361,4.11,3.817c0,0,3.6.9,3.629,3.538,0,0,2.447,1.581.956,4.833,0,0,2.326,2.063.482,4.344a3.423,3.423,0,0,1-1.34,3.689s1.814,1.694.339,4.524c0,0,1.837,1.837.151,3.4a3.192,3.192,0,0,1,.083,4.08,2.341,2.341,0,0,1-2.025,2.71s-.2,3.817-3.29,3.553c0,0,.9,2.289-1.039,3.335,0,0-.173,1.98-2.71,1.159a3.938,3.938,0,0,1-3.832,2.846s-2.281,2.5-4.524,2.048c0,0-.655,2.289-3.644,1.89a2.213,2.213,0,0,1-2.981.482s-2.974-6.632-3.4-12.241a88.032,88.032,0,0,0-2.115-12.323,16.463,16.463,0,0,1-1.573-4.75,4.85,4.85,0,0,1-2-3.629s-2.3-1.3-2.59-3.207c0,0-2.56-.836-3.207-2.718,0,0-4.9-.376-5.962-2.943C531.637,136.858,530.328,137.272,529.823,136.436Z" transform="translate(-128.116 -23.401)" fill="url(#g)"/><path d="M548.723,352.2s8.65,13.648,14.183,19.761c0,0-13.039-10.66-16.946-16.675" transform="translate(-132.625 -80.551)" fill="none" stroke="#919191" stroke-miterlimit="10" stroke-width="1" opacity="0.5"/><path d="M552.51,162.759s7.92-4.065,7.543,4.4a19.807,19.807,0,0,1-4.788,11.375Z" transform="translate(-134.238 -33.032)" fill="#fbbc8b"/><g transform="translate(290.841 103.744)"><path d="M390.975,143.638l.467-3.222-1.2-.135-.678,2.943A2.033,2.033,0,0,0,390.975,143.638Z" transform="translate(-384.418 -131.397)" fill="#bfc7d1"/><path d="M387.864,144.18l-5.134,24.271s.557,1.724,2.048,1.777a.912.912,0,0,0,.918-.723l3.4-23.661.181-1.25A1.976,1.976,0,0,1,387.864,144.18Z" transform="translate(-382.73 -132.361)" fill="#f79d1c"/><path d="M392.7,134.251a2.8,2.8,0,0,1-.843-.391c-.7-.512-1.859.181-1.859.181.2-.851-.384-.821-.391-.821-.188.3-.384.64-.587,1.024a3.15,3.15,0,0,0,.956,4.291l1.2.135A5.786,5.786,0,0,0,392.7,134.251Z" transform="translate(-384.167 -129.652)" fill="#7d5849"/><path d="M390.06,132.924c.09-.143.173-.286.256-.414C390.233,132.638,390.15,132.781,390.06,132.924Z" transform="translate(-384.542 -129.476)" fill="#7d5849"/><path d="M390.4,132.176c.248-.391.459-.723.64-1.016C390.859,131.454,390.648,131.785,390.4,132.176Z" transform="translate(-384.626 -129.142)" fill="#d92226"/><path d="M389.96,133.173h0l.068-.113A.9.9,0,0,1,389.96,133.173Z" transform="translate(-384.517 -129.612)" fill="#d92226"/><path d="M390.351,132.871s1.159-.693,1.859-.181a2.8,2.8,0,0,0,.843.391,9.858,9.858,0,0,0-1.7-4.592,2.186,2.186,0,0,1,.06.422v.023a2.073,2.073,0,0,1-.015.376.045.045,0,0,1-.008.03,2.685,2.685,0,0,1-.241.745h0c-.06.128-.135.256-.218.4a.026.026,0,0,1-.008.015c-.173.294-.391.625-.64,1.016-.083.128-.166.271-.256.414l-.068.113C389.975,132.043,390.547,132.013,390.351,132.871Z" transform="translate(-384.517 -128.482)" fill="#d92226"/><path d="M391.44,143.684a1.548,1.548,0,0,0,.6-.181l.346-2.981-.474-.053Z" transform="translate(-384.883 -131.444)" fill="#a5adb9"/><path d="M394.668,133.306a6.484,6.484,0,0,1-1.159-.233,5.786,5.786,0,0,1-1.521,4.419l.474.053c5.578-2.718-.662-9.064-.662-9.064h0A12.108,12.108,0,0,1,394.668,133.306Z" transform="translate(-384.972 -128.48)" fill="#604c44"/><path d="M393.511,133.085a6.481,6.481,0,0,0,1.159.233,12.132,12.132,0,0,0-2.861-4.818h0A9.726,9.726,0,0,1,393.511,133.085Z" transform="translate(-384.975 -128.485)" fill="#b12727"/><path d="M389.962,144.681l-.181,1.25-3.4,23.661a.905.905,0,0,1-.918.723,3.5,3.5,0,0,0,2.251-.949l2.612-22.712.248-2.153A2.241,2.241,0,0,1,389.962,144.681Z" transform="translate(-383.405 -132.44)" fill="#d18329"/></g><path d="M216.755,257.963l-6.512,12.323c-5.006-1.777-18.986-15.854-18.986-15.854a5.93,5.93,0,0,1-1.438-2.319c-.181-1.393.241-5.322-.391-7.107s-2.258-3.907-2.657-5.639c-.384-1.656-.053-5.142-1.077-4.065a4.331,4.331,0,0,0-1.061,3.869c.151,1,1.521,3.44.8,3.418s-4.532-3.486-5.661-4.2-6.677-5.285-7.227-4.773c-1.1,1.024,6.549,6.625,6.06,7.009s-7.852-6.474-8.695-5.691c-.994.926,7.761,7.3,6.866,8.093-.625.55-6.843-5.751-7.5-4.856-.949,1.295,7.385,7.031,6.873,7.573s-5.586-4.253-6.03-3.553c-.753,1.174,5.654,5.608,6.926,7.295a15.448,15.448,0,0,0,6.158,4.464,4.862,4.862,0,0,1,.7.316c.068.053,1.137.911,3.809,5.9h0a89.975,89.975,0,0,0,11.179,17.3c8.582,10.336,9.44,11.7,13.43,8.77s13.9-17.247,13.9-17.247ZM212.3,271.016a.518.518,0,0,1,.06.023A.518.518,0,0,0,212.3,271.016Zm-1.92-.678c.045.015.09.03.151.053C210.484,270.377,210.431,270.354,210.379,270.339Zm.211.075c.083.03.181.068.286.105C210.785,270.482,210.687,270.444,210.589,270.414Zm.452.158c.1.038.2.075.309.113C211.252,270.648,211.154,270.61,211.041,270.572Zm.6.211c.12.045.241.083.339.12C211.884,270.873,211.771,270.836,211.643,270.783Zm.79.286c.038.015.045.015,0,0Z" transform="translate(-38.653 -50.997)" fill="#f7afaa"/><path d="M189.647,239.665c.135.911,1.272,3,.941,3.358.437-.369-.015-2.552-.279-3.772-.286-1.3.738-3.546.783-3.644-.008,0-.023-.008-.03-.008h-.045a.586.586,0,0,0-.309.2A4.367,4.367,0,0,0,189.647,239.665Z" transform="translate(-43.698 -51.44)" fill="#f28c8b"/><path d="M175.9,235.924c-1.084-1.084-2.326-2.3-2.326-2.3-1.1,1.024,6.549,6.625,6.06,7.009C180.116,240.2,176.985,237.008,175.9,235.924Z" transform="translate(-39.682 -50.946)" fill="#f28c8b"/><path d="M172.832,238.065a16.787,16.787,0,0,1-2.748-2.7c-.994.926,7.761,7.3,6.866,8.093C178.147,243.229,174.5,239.36,172.832,238.065Z" transform="translate(-38.82 -51.383)" fill="#f28c8b"/><path d="M172.9,243.216a20.072,20.072,0,0,1-3.659-3.546c-.949,1.295,7.385,7.031,6.873,7.573C177.15,247.063,174.793,244.511,172.9,243.216Z" transform="translate(-38.611 -52.456)" fill="#f28c8b"/><path d="M177.3,252.307a15.448,15.448,0,0,0,6.158,4.464,4.862,4.862,0,0,1,.7.316c.068.053,1.137.911,3.809,5.9h0a89.976,89.976,0,0,0,11.179,17.3c8.582,10.336,9.44,11.7,13.43,8.77,3.583-2.627,11.932-14.446,13.6-16.825-1.363-.414-2.68-.647-2.981-.2-.67,1-9.892,14.266-12.339,14.853s-6.685-4.171-9.523-7.009-10.8-15.275-12.6-17.9-3.132-5.925-3.884-6.007a17.986,17.986,0,0,1-4.961-2.379c-1.212-.918-2.838-3.335-4.969-4.713a32.244,32.244,0,0,1-4.539-3.862C169.617,246.194,176.016,250.621,177.3,252.307Z" transform="translate(-38.929 -53.842)" fill="#f28c8b"/><path d="M230.832,268.52l-.572,1.084s2.4,9.071,8.552,11.5l.806-1.122A42.551,42.551,0,0,1,230.832,268.52Z" transform="translate(-53.852 -59.66)" fill="#919191" opacity="0.26"/><path d="M378.639,159.276a2.784,2.784,0,0,0-.527-2.567c-1.882,2.341-2.853-.67-2.853-.67s.151-.911-3.011.775c-2.492,1.325-3.418,5.315-3.6,6.685a2.727,2.727,0,0,0,0,.783l.211,2.033v.113c-1.837,10.058-9.26,28.968-9.26,28.968l-14.77,2.123-5.6.248s-.158,13.52,5.6,14.047,25.784-10.042,25.784-10.042c5.383-8.718,3.621-30.5,3.32-33.733a7.544,7.544,0,0,0,1.686-.738h.008c2.01-.888,2.138-2.191,2.138-2.191a2.5,2.5,0,0,0,.918-3.019A2.458,2.458,0,0,0,378.639,159.276Z" transform="translate(-81.079 -31.571)" fill="#f7afaa"/><path d="M375.44,156.039s.151-.911-3.011.775c-2.492,1.325-3.418,5.315-3.6,6.685a2.729,2.729,0,0,0,0,.783l.211,2.033v.113c-1.837,10.058-9.26,28.968-9.26,28.968l-14.77,2.123-5.142.226c.068,1.588.135,2.755.135,2.861a117.041,117.041,0,0,0,6.873,11.1,22.231,22.231,0,0,0,2.59-.6c-3.553-12.2,3.38-11.315,3.38-11.315,9.839-.9,10.1-2.6,10.1-2.6,3.839-8.258,7.43-28.787,7.257-30.79a13.015,13.015,0,0,1,1.423-6.188c.836-1.679,2-2.74,3.817-2.319a2.813,2.813,0,0,0,2.853-1.167C376.411,159.051,375.44,156.039,375.44,156.039Z" transform="translate(-81.237 -31.571)" fill="#f28c8b"/><path d="M240.039,224.35l-9.779,31.9s5.9,15.139,12.519,13.009c2.251-.723,8.514-8.168,8.514-8.168Z" transform="translate(-53.863 -48.68)" fill="#3985c6"/><path d="M305.75,208.72c.753.753,26.785,1.874,30.79,1.122,0,0,2,10.637,5.759,16.773,0,0-13.611,8.763-18.278,8.763S305.75,208.72,305.75,208.72Z" transform="translate(-72.719 -44.755)" fill="#3985c6"/><g transform="translate(74.568 346.617)"><path d="M101.278,494.2c-6.692-3.553-8.386,4.178-5.789,10.592s15.952,27.959,16.645,36.5c.271,3.312.888,2.951,1.415.625C116.191,530.331,110.493,499.089,101.278,494.2Z" transform="translate(-94.329 -462.492)" fill="#2c4d3c" fill-rule="evenodd"/><g transform="translate(14.144)"><path d="M120.09,454.72c7.671-6.911,12.467,2.763,11.142,12.09s-11.864,42.218-9.967,53.743c.738,4.472-.2,4.193-1.664,1.295C112.291,507.409,109.528,464.228,120.09,454.72Z" transform="translate(-113.117 -452.376)" fill="#4a8d76" fill-rule="evenodd"/><path d="M122.947,525.088c-.166.429-.527.218-1.016-.5-7.995-26.634,4.457-66.428,4.5-66.556a.414.414,0,0,1,.79.248C127.178,458.4,114.553,498.739,122.947,525.088Z" transform="translate(-114.634 -453.703)" fill="#1a7357" fill-rule="evenodd"/></g><g transform="translate(20.552 23.76)"><path d="M138.952,484.655c7.43-3.237,8.6,5.157,5.292,11.781s-19.347,28.494-20.8,37.55c-.565,3.508-1.189,3.071-1.566.549C120.034,521.956,128.721,489.111,138.952,484.655Z" transform="translate(-121.63 -483.938)" fill="#a2c469" fill-rule="evenodd"/><path d="M122.932,537.479c-.226.279-.444.03-.632-.625.67-21.831,19.859-48.368,19.919-48.458a.325.325,0,0,1,.452-.075.333.333,0,0,1,.075.459C142.679,488.862,123.241,515.768,122.932,537.479Z" transform="translate(-121.795 -485.006)" fill="#5e9450" fill-rule="evenodd"/></g><g transform="translate(8.214 67.033)"><path d="M124.817,547.22H110.536l-3.726,3.365,3.049,11.736H125.5l3.049-11.736Z" transform="translate(-105.628 -542.854)" fill="#3e405f" fill-rule="evenodd"/><path d="M128.163,541.42H106.422a1.189,1.189,0,0,0-1.182,1.182v5.368a1.189,1.189,0,0,0,1.182,1.182h21.741a1.189,1.189,0,0,0,1.182-1.182V542.6A1.189,1.189,0,0,0,128.163,541.42Z" transform="translate(-105.24 -541.42)" fill="#3e405f" fill-rule="evenodd"/><path d="M106.81,551.69l.625,2.409h20.491l.625-2.409Z" transform="translate(-105.628 -543.959)" fill="#101537" fill-rule="evenodd"/></g></g><g transform="translate(227.143 120.651)"><path d="M308.226,150.99a39.348,39.348,0,0,1-1.777,4.555,44.8,44.8,0,0,1-2.243,4.351,31.555,31.555,0,0,1-2.77,4.05,15.155,15.155,0,0,1-3.576,3.358c.286-.294.572-.58.866-.858.271-.3.527-.617.79-.918a22.722,22.722,0,0,0,1.46-1.927c.918-1.317,1.777-2.688,2.582-4.088.828-1.385,1.6-2.808,2.379-4.231Z" transform="translate(-297.86 -150.99)" fill="#2e3279"/></g><path d="M509.81,179.206s2.65,5.24,15.96,3.6,19.106-9.463,19.106-9.463c-5.48,3.064-30.564,11.2-30.316,0S525.6,140.82,525.6,140.82A70.539,70.539,0,0,0,509.81,179.206Z" transform="translate(-123.645 -27.82)" fill="#f9aa75"/><path d="M735.47,378.453s.467.218,1.272.677C736.185,378.6,735.749,378.355,735.47,378.453Z" transform="translate(-179.912 -87.059)" fill="none"/><g transform="translate(184.934 182.318)"><path d="M241.62,233.19c.316,1.438.647,2.861,1.009,4.283.346,1.423.7,2.846,1.077,4.268.738,2.838,1.46,5.684,2.258,8.507.73,2.838,1.536,5.661,2.3,8.5s1.551,5.661,2.266,8.514c-.512-1.378-.979-2.77-1.468-4.156l-1.355-4.193c-.873-2.808-1.679-5.631-2.469-8.462-.738-2.846-1.476-5.691-2.093-8.567S241.951,236.118,241.62,233.19Z" transform="translate(-241.62 -233.19)" fill="#645f63"/></g><path d="M305.83,554.279s-2.161,9.4-.331,9.4h26.258s3.184-4-2.778-5.894c-6.738-2.145-15.756-3.99-15.756-3.99A10.012,10.012,0,0,1,305.83,554.279Z" transform="translate(-72.461 -130.827)" fill="#163342"/><path d="M306.862,464.837c1-8.032-1-12.993-1.25-27.267s-7.423-50.95-7.423-50.95,3.621,59.893,4.449,65.652c.218,1.536-.662,8.251-.858,16.863-.391,17.013,1.626,40.29,1.626,40.29s1.114.911,4.268,1.2C306.471,505.067,305.861,472.869,306.862,464.837Z" transform="translate(-70.799 -89.504)" fill="#565756" opacity="0.4"/><path d="M256.754,273.893c-1.837-15.854-7.182-26.868-11.021-35.382A34.959,34.959,0,0,1,243.06,221.4c-1.468,3.365-2.055,7.837-.828,13.769,4.336,21.026,9.275,17.209,12.948,73.286,0,0,.971,2.507,9.576,5.488,4.554,1.581,10.615,2.018,16.3,1.972C257.409,315.238,258.5,288.965,256.754,273.893Z" transform="translate(-56.703 -48.02)" opacity="0.2" fill="url(#h)"/><path d="M337.118,209.953a179.475,179.475,0,0,1-29.028-.783s17.4,4.878,29.638,3.583Z" transform="translate(-73.294 -44.843)" opacity="0.2" fill="url(#i)"/><path d="M109.272,60.1h-17.7a5.5,5.5,0,0,1-5.5-5.5V36.893a5.5,5.5,0,0,1,5.5-5.5h17.7a5.5,5.5,0,0,1,5.5,5.5v17.7A5.507,5.507,0,0,1,109.272,60.1Z" transform="translate(-17.72 -0.492)" fill="#f7afaa"/><path d="M280.3,29.4H184.1a8.936,8.936,0,0,0,0,17.872h88.35l5.458,6.881V47.272h2.386A8.936,8.936,0,0,0,280.3,29.4Z" transform="translate(-40.192)" fill="#ef8bb9"/><g transform="translate(86.561 63.148)"><path d="M128.4,95.226H113.121a2.859,2.859,0,0,1-2.861-2.861V77.091a2.859,2.859,0,0,1,2.861-2.861H128.4a2.859,2.859,0,0,1,2.861,2.861V92.365A2.859,2.859,0,0,1,128.4,95.226Z" transform="translate(-110.26 -74.23)" fill="#ffcb72"/><path d="M128.811,91.306l-2.846-2.846a6,6,0,1,0-1.476,1.475l2.846,2.846Zm-7.746-2.379a3.892,3.892,0,1,1,3.892-3.892A3.9,3.9,0,0,1,121.065,88.927Z" transform="translate(-111.451 -75.421)" fill="#fff"/></g><path d="M472.687,83.543H382.644a2.975,2.975,0,0,1-2.974-2.974V56.894a2.975,2.975,0,0,1,2.974-2.974h90.043a2.975,2.975,0,0,1,2.974,2.974V80.569A2.97,2.97,0,0,1,472.687,83.543Z" transform="translate(-91.279 -6.061)" fill="#61cae6"/><path d="M460.444,265.067H398.1a2.975,2.975,0,0,1-2.974-2.974v-11.42A2.975,2.975,0,0,1,398.1,247.7h62.34a2.975,2.975,0,0,1,2.974,2.974v11.42A2.975,2.975,0,0,1,460.444,265.067Z" transform="translate(-95.085 -54.471)" fill="#5652a2"/><g transform="translate(309.039 197.999)"><rect width="5.691" height="0.979" fill="#ef8bb9"/><rect width="22.923" height="0.979" transform="translate(8.733)" fill="#fff"/><rect width="3.749" height="0.979" transform="translate(8.733 1.716)" fill="#fff"/><rect width="21.282" height="0.979" transform="translate(29.021 3.425)" fill="#ef8bb9"/><rect width="11.842" height="0.979" transform="translate(13.362 1.716)" fill="#fff"/><rect width="3.749" height="0.979" transform="translate(8.733 6.843)" fill="#fff"/><rect width="4.246" height="0.979" transform="translate(13.362 6.843)" fill="#f0cb71"/><rect width="19.407" height="0.979" transform="translate(8.733 3.425)" fill="#ef8bb9"/><rect width="41.57" height="0.979" transform="translate(8.733 5.134)" fill="#fff"/></g><g transform="translate(296.437 53.834)"><path d="M395.738,62.01,390.333,67.6a.5.5,0,0,0-.143.346V72.9a.5.5,0,0,0,.5.5h3.659a.5.5,0,0,0,.5-.5V70.494a1.251,1.251,0,0,1,1.25-1.25h0a1.251,1.251,0,0,1,1.25,1.25V72.9a.5.5,0,0,0,.5.5H401.5a.5.5,0,0,0,.5-.5V67.95a.5.5,0,0,0-.143-.346l-5.405-5.593A.487.487,0,0,0,395.738,62.01Z" transform="translate(-390.19 -61.858)" fill="#20c1e9"/></g><path d="M460.369,265.562l-6.324-1.912s-2.642,3.583,6.038,6.6l10.208-.655S461.875,265.758,460.369,265.562Z" transform="translate(-109.598 -58.436)" fill="#fbbc8b"/><g transform="translate(72.619 39.269)"><path d="M91.74,49.79V48.518l6.339-3.538v1.777l-4.547,2.386,4.547,2.386v1.777Z" transform="translate(-91.74 -43.121)" fill="#fff"/><path d="M106.978,42.51l-3.794,11.97H101.46l3.794-11.97h1.724Z" transform="translate(-94.143 -42.51)" fill="#fff"/><path d="M110.11,53.316V51.539l4.562-2.386-4.562-2.386V44.99l6.339,3.538V49.8Z" transform="translate(-96.281 -43.123)" fill="#fff"/></g><path d="M473.471,316.206a3.486,3.486,0,1,1-3.486-3.486A3.483,3.483,0,0,1,473.471,316.206Z" transform="translate(-112.781 -70.678)" fill="none" stroke="#61cae6" stroke-miterlimit="10" stroke-width="3"/><circle cx="2.936" cy="2.936" r="2.936" transform="translate(83.625 265.175)" fill="#dce5f4"/><g transform="translate(95.203 239.653)"><path d="M182.642,352.154H124a2.255,2.255,0,0,1-2.258-2.258V311.878A2.255,2.255,0,0,1,124,309.62h58.644a2.255,2.255,0,0,1,2.258,2.258V349.9A2.26,2.26,0,0,1,182.642,352.154Z" transform="translate(-121.74 -309.62)" fill="#61cae6"/><path d="M124.17,350.576V312.71h59.51v37.866Z" transform="translate(-122.341 -310.384)" opacity="0.2" fill="url(#j)"/><path d="M162.46,329.875a4.735,4.735,0,1,0,4.735-4.735A4.734,4.734,0,0,0,162.46,329.875Z" transform="translate(-131.806 -313.456)" fill="#f0cb71"/><path d="M183.68,347.307l-14.988-14.981L158.22,342.8,136.795,321.38,124.17,334v18.722h59.51Z" transform="translate(-122.341 -312.527)" fill="#fff"/></g><g transform="translate(248.313 75.141)"><line y2="5.962" transform="translate(2.981)" stroke-width="3" stroke="#61cae6" stroke-linecap="round" stroke-linejoin="round" stroke-miterlimit="10" fill="none"/><line x1="5.962" transform="translate(0 2.981)" stroke-width="3" stroke="#61cae6" stroke-linecap="round" stroke-linejoin="round" stroke-miterlimit="10" fill="none"/></g><circle cx="2.063" cy="2.063" r="2.063" transform="translate(145.234 222.787)" fill="#fff"/><g transform="translate(288.888 212.142)"><line y2="5.962" transform="translate(2.981)" stroke-width="3" stroke="#61cae6" stroke-linecap="round" stroke-linejoin="round" stroke-miterlimit="10" fill="none"/><line x1="5.97" transform="translate(0 2.981)" stroke-width="3" stroke="#61cae6" stroke-linecap="round" stroke-linejoin="round" stroke-miterlimit="10" fill="none"/></g><circle cx="2.063" cy="2.063" r="2.063" transform="translate(380.144 85.943)" fill="#fff"/><path d="M167.208,57.834a1.754,1.754,0,1,1-1.754-1.754A1.751,1.751,0,0,1,167.208,57.834Z" transform="translate(-37.245 -6.595)" fill="#fff"/><path d="M340.049,104.09a1.25,1.25,0,1,1-1.25-1.25A1.247,1.247,0,0,1,340.049,104.09Z" transform="translate(-80.608 -18.154)" fill="#fff"/><g transform="translate(298.441 242.482)"><path d="M422.239,347.871H398.082a5.171,5.171,0,0,1-5.172-5.172V318.542a5.171,5.171,0,0,1,5.172-5.172h24.158a5.171,5.171,0,0,1,5.172,5.172V342.7A5.166,5.166,0,0,1,422.239,347.871Z" transform="translate(-392.91 -313.37)" fill="#ffcb72"/></g><g transform="translate(73.266 198.2)"><path d="M93.556,254.32H105.8a.961.961,0,0,1,.964.964V266.1a.961.961,0,0,1-.964.964h-3.644l-2.477,2.477-2.477-2.477H93.564a.961.961,0,0,1-.964-.964V255.284A.95.95,0,0,1,93.556,254.32Z" transform="translate(-92.6 -254.32)" fill="#ef8bb9"/><path d="M103.7,260.788a1.563,1.563,0,0,0-2.221,0l-.519.527-.519-.527a1.57,1.57,0,1,0-2.221,2.221l2.748,2.748,2.748-2.748A1.591,1.591,0,0,0,103.7,260.788Z" transform="translate(-93.874 -255.804)" fill="#f7f8f9"/></g><g transform="translate(303.372 247.415)"><path d="M413,334.781a.806.806,0,0,0,.331-.632v-7.408a.816.816,0,0,0-.813-.821h-.008a1.619,1.619,0,0,0-1.506,1.016l-3.486,8.718a2.05,2.05,0,0,0,.173,1.867l2.831,4.4h-.068a.822.822,0,0,0-.821.821v.821a.822.822,0,0,0,.821.821v1.235a.413.413,0,0,0,.414.414h5.744a.413.413,0,0,0,.414-.414v-1.235a.822.822,0,0,0,.821-.821v-.821a.822.822,0,0,0-.821-.821h-.068l2.831-4.4a2.05,2.05,0,0,0,.173-1.867l-3.486-8.718a1.619,1.619,0,0,0-1.506-1.016h-.008a.821.821,0,0,0-.813.821v7.423a.774.774,0,0,0,.324.625,1.226,1.226,0,1,1-1.942,1.144,1.255,1.255,0,0,1,.467-1.152Zm3.2,10.426h-4.923v-.821H416.2Zm.821-1.641h-6.564v-.821h6.564Zm-3.779-5.8a2.054,2.054,0,0,0,1.731-3.636v-7.385h0a.8.8,0,0,1,.745.5l3.486,8.718a1.213,1.213,0,0,1-.105,1.122l-3.117,4.848H411.5l-3.117-4.848a1.256,1.256,0,0,1-.105-1.122l3.486-8.718a.8.8,0,0,1,.738-.5h0v7.385a2.052,2.052,0,0,0-.783,2.048,2.085,2.085,0,0,0,1.521,1.588Z" transform="translate(-401.414 -321.403)" fill="#fff"/><path d="M413.65,345.4a.413.413,0,0,0,.414.414h2.462a.413.413,0,0,0,.414-.414.408.408,0,0,0-.414-.414h-2.462A.418.418,0,0,0,413.65,345.4Z" transform="translate(-402.966 -326.117)" fill="#fff"/><path d="M422.736,330.617a11,11,0,0,0-9.342-9.342,1.635,1.635,0,0,0-3.222,0,11,11,0,0,0-9.342,9.342,1.646,1.646,0,1,0,.821.068,10.33,10.33,0,0,1,8.59-8.59,1.629,1.629,0,0,0,3.086,0,10.313,10.313,0,0,1,8.59,8.59,1.636,1.636,0,1,0,.821-.068Zm-20.8,1.611a.821.821,0,1,1-.821-.821.8.8,0,0,1,.58.241A.84.84,0,0,1,401.936,332.228Zm9.847-9.847a.821.821,0,1,1,.821-.821.8.8,0,0,1-.241.58.841.841,0,0,1-.58.241Zm10.667,10.667a.821.821,0,1,1,.821-.821A.822.822,0,0,1,422.45,333.049Z" transform="translate(-399.458 -319.92)" fill="#fff"/></g><path d="M135.563,245.54a.206.206,0,0,1-.143.06A.171.171,0,0,0,135.563,245.54Z" transform="translate(-29.918 -53.911)" fill="none"/><path d="M136.19,235.67h0Z" transform="translate(-30.109 -51.449)" fill="#f7afaa"/><path d="M136.278,235.67h-.038c.015,0,.023.008.03.008A.007.007,0,0,0,136.278,235.67Z" transform="translate(-30.121 -51.449)" fill="#e2f3fc"/><path d="M223.322,282.155l-.738,1.385a1.428,1.428,0,0,0-.474-1.95Z" transform="translate(-51.812 -62.905)" fill="#f28c8b"/><g transform="translate(242.338 189.729)" opacity="0.2"><path d="M324.239,327.222c2.5-1.671,4.577-4.088,3.907-7.393-1.061-5.194-5.812-20.175-2.115-35.48-2.379,7.137-4.321,14.574-4.321,21.35C321.718,315.336,327.7,324.113,324.239,327.222Z" transform="translate(-319 -253.334)" fill="url(#k)"/><path d="M318.11,243.15s14.815,9.749,11.066,19.806c2.364-6.007,2.386-8.665-2.514-19.023A28.2,28.2,0,0,1,318.11,243.15Z" transform="translate(-318.11 -243.15)" fill="url(#l)"/></g><path d="M346.65,211.128l2.108-.248s1.769,9.463,3.644,13.43l-1.355.467A78.993,78.993,0,0,1,346.65,211.128Z" transform="translate(-82.883 -45.28)" fill="#919191" opacity="0.26"/><line x1="0.113" y2="1.438" transform="translate(226.989 138.908)" fill="#f28c8b"/><path d="M295.952,176.674c-1.634-.226-4.125.008-3.666,3.689.678,5.413,2.853,7.2,2.853,7.2s-3.41-1.393-4.186-6.61,1.7-6.437,5.1-5.721" transform="translate(-68.954 -36.337)" fill="#f28c8b"/></g></svg>